<?xml version="1.0" encoding="UTF-8" standalone="no"?>
<!-- Created with Inkscape (http://www.inkscape.org/) -->

<svg
   width="512"
   height="512"
   viewBox="0 0 135.46666 135.46667"
   version="1.1"
   id="svg2643"
   inkscape:version="1.2.2 (732a01da63, 2022-12-09)"
   sodipodi:docname="icon-adaptive.svg"
   xmlns:inkscape="http://www.inkscape.org/namespaces/inkscape"
   xmlns:sodipodi="http://sodipodi.sourceforge.net/DTD/sodipodi-0.dtd"
   xmlns="http://www.w3.org/2000/svg"
   xmlns:svg="http://www.w3.org/2000/svg">
  <sodipodi:namedview
     id="namedview2645"
     pagecolor="#ffffff"
     bordercolor="#000000"
     borderopacity="0.25"
     inkscape:showpageshadow="2"
     inkscape:pageopacity="0.0"
     inkscape:pagecheckerboard="0"
     inkscape:deskcolor="#d1d1d1"
     inkscape:document-units="mm"
     showgrid="false"
     inkscape:zoom="0.48016975"
     inkscape:cx="223.87916"
     inkscape:cy="229.08565"
     inkscape:window-width="1366"
     inkscape:window-height="697"
     inkscape:window-x="-8"
     inkscape:window-y="-8"
     inkscape:window-maximized="1"
     inkscape:current-layer="layer1" />
  <defs
     id="defs2640" />
  <g
     inkscape:label="Layer 1"
     inkscape:groupmode="layer"
     id="layer1">
    <path
       d="m 79.046911,41.21945 c -1.469925,0.315278 -11.128808,5.462076 -8.291292,18.691359 l 2.206959,10.289446 c 0.695585,3.243014 3.897786,5.314151 7.140796,4.618567 l 2.939845,-0.630558 2.522231,11.759359 c 0.34878,1.626098 1.944304,2.658063 3.570403,2.309288 1.626104,-0.34878 2.658057,-1.944309 2.309283,-3.570409 L 88.922901,72.927143 86.715942,62.637697 82.617304,43.528733 C 82.268529,41.902634 80.673005,40.870672 79.046911,41.21945 Z m -32.022973,8.406068 c -0.161582,-0.753335 -0.855985,-1.257851 -1.627048,-1.178952 -0.771072,0.0789 -1.335314,0.718842 -1.345012,1.480083 l -0.09787,13.118946 c -0.0045,0.606368 0.05733,1.208128 0.183439,1.796095 0.904455,4.216837 4.871972,6.988694 9.077726,6.48061 l 4.421792,20.615631 c 0.34878,1.626096 1.944304,2.658066 3.570404,2.309286 1.626098,-0.34878 2.658057,-1.944307 2.309282,-3.5704 L 59.094852,70.061179 c 4.044177,-1.261417 6.525937,-5.416564 5.621477,-9.633401 -0.126109,-0.587966 -0.316529,-1.16214 -0.569288,-1.713335 l -5.46945,-11.924824 c -0.323004,-0.699492 -1.116469,-1.038615 -1.842879,-0.796322 -0.726412,0.242293 -1.152826,0.98721 -0.991248,1.740544 l 2.64441,12.328959 c 0.106412,0.496099 -0.211123,0.987025 -0.707222,1.093435 -0.468535,0.100499 -0.931236,-0.175039 -1.077667,-0.633723 L 52.866852,48.237753 c -0.227863,-0.748729 -0.985909,-1.191546 -1.748425,-1.027994 -0.762526,0.16355 -1.272287,0.878296 -1.173045,1.654612 l 1.54857,12.775411 c 0.05456,0.47839 -0.254446,0.919448 -0.722981,1.019942 -0.496099,0.106412 -0.98703,-0.211123 -1.093435,-0.707217 l -2.644405,-12.32896 z m 7.43248,13.012493 -0.02758,0.0059 -0.02753,0.0059 0.01374,-0.07022 z"
       id="path140"
       style="fill:#ffffff;stroke-width:0.0939595" />
  </g>
</svg>
