<?xml version="1.0" encoding="UTF-8" standalone="no"?>
<!-- Created with Inkscape (http://www.inkscape.org/) -->

<svg
   width="512"
   height="512"
   viewBox="0 0 135.46666 135.46667"
   version="1.1"
   id="svg5"
   xml:space="preserve"
   inkscape:version="1.2.2 (732a01da63, 2022-12-09)"
   sodipodi:docname="icon.svg"
   xmlns:inkscape="http://www.inkscape.org/namespaces/inkscape"
   xmlns:sodipodi="http://sodipodi.sourceforge.net/DTD/sodipodi-0.dtd"
   xmlns="http://www.w3.org/2000/svg"
   xmlns:svg="http://www.w3.org/2000/svg"><sodipodi:namedview
     id="namedview7"
     pagecolor="#ffffff"
     bordercolor="#000000"
     borderopacity="0.25"
     inkscape:showpageshadow="2"
     inkscape:pageopacity="0.0"
     inkscape:pagecheckerboard="0"
     inkscape:deskcolor="#d1d1d1"
     inkscape:document-units="mm"
     showgrid="false"
     inkscape:zoom="0.24008488"
     inkscape:cx="-210.34228"
     inkscape:cy="241.58123"
     inkscape:window-width="1366"
     inkscape:window-height="697"
     inkscape:window-x="-8"
     inkscape:window-y="-8"
     inkscape:window-maximized="1"
     inkscape:current-layer="layer1" /><defs
     id="defs2" /><g
     inkscape:label="Layer 1"
     inkscape:groupmode="layer"
     id="layer1"><rect
       style="fill:#3089b3;stroke:none;stroke-width:0.264583;stroke-linecap:round;stroke-linejoin:round;fill-opacity:1"
       id="rect406"
       width="135.46666"
       height="135.46666"
       x="0"
       y="0"
       ry="3.5780709" /><path
       d="M 89.426092,17.358668 C 86.515958,17.982852 67.39342,28.172419 73.011097,54.363595 l 4.369305,20.370914 c 1.377109,6.420478 7.716797,10.520896 14.137267,9.14378 l 5.820265,-1.248367 4.993486,23.281038 c 0.69051,3.21933 3.8493,5.2624 7.06864,4.5719 3.21933,-0.69051 5.26239,-3.84932 4.57188,-7.06865 l -4.99349,-23.281035 -4.3693,-20.370923 -8.114431,-37.831694 c -0.690505,-3.219331 -3.8493,-5.262396 -7.068627,-4.57189 z m -63.398688,16.64223 c -0.319896,-1.491443 -1.694664,-2.490276 -3.221213,-2.334075 -1.526557,0.156201 -2.643636,1.423154 -2.662834,2.930252 l -0.193776,25.972729 c -0.0089,1.200479 0.113497,2.391839 0.363172,3.555892 1.790635,8.348437 9.645469,13.836125 17.971971,12.830224 l 8.754214,40.81458 c 0.690504,3.21933 3.849306,5.2624 7.068639,4.5719 3.219332,-0.69051 5.262392,-3.84932 4.571887,-7.06864 L 49.925249,74.459173 C 57.931855,71.961829 62.845215,63.735525 61.05458,55.387087 60.804906,54.223034 60.427913,53.08629 59.927503,51.995043 L 49.099155,28.386421 c -0.639483,-1.384845 -2.210368,-2.056238 -3.648511,-1.576548 -1.438143,0.479688 -2.282352,1.954464 -1.962457,3.445907 l 5.235364,24.408721 c 0.210663,0.982168 -0.417972,1.954105 -1.400141,2.164768 -0.927603,0.198959 -1.843658,-0.346536 -2.133559,-1.254635 l -7.59473,-24.321217 c -0.451113,-1.482323 -1.951882,-2.359006 -3.461511,-2.035209 -1.50963,0.323796 -2.518851,1.738841 -2.322373,3.27578 l 3.065836,25.292608 c 0.108018,0.94711 -0.503744,1.820302 -1.431352,2.019263 -0.982169,0.210663 -1.954102,-0.417973 -2.164765,-1.400141 L 26.045593,33.996997 Z m 14.714727,25.761978 -0.05455,0.0117 -0.05455,0.0117 0.02725,-0.139019 z"
       id="path140"
       style="fill:#ffffff;stroke-width:0.18602" /></g></svg>
