<?xml version="1.0" encoding="UTF-8"?>
<svg version="1.1" viewBox="0 0 300.18 128.81" xmlns="http://www.w3.org/2000/svg" xmlns:xlink="http://www.w3.org/1999/xlink">
<defs>
<rect id="b" width="329" height="188"/>
<clipPath id="a">
<use clip-rule="evenodd" xlink:href="#b"/>
</clipPath>
</defs>
<g transform="translate(-16.877 -35.442)" clip-path="url(#a)">
<path d="m293.8 116.79c-0.219 0.625-0.563 1.469-1.032 2.531-0.468 1.063-1.101 2.102-1.898 3.117-0.797 1.016-1.766 1.883-2.906 2.602-1.141 0.719-2.461 1.047-3.961 0.984-1.344-0.094-2.469-0.484-3.375-1.172-0.907-0.687-1.641-1.742-2.203-3.164-0.563-1.422-0.969-3.218-1.219-5.39s-0.375-4.789-0.375-7.852c0-2.937 0.078-5.586 0.234-7.945 0.156-2.36 0.36-4.4456 0.61-6.2581-1.438 0.0625-2.696 0.0938-3.774 0.0938h-2.273c-0.907 0-1.805-0.0625-2.696-0.1875-0.89-0.125-1.726-0.3438-2.507-0.6563-0.782-0.3125-1.5-0.7265-2.157-1.2421-0.656-0.5157-1.203-1.1641-1.64-1.9454l0.187-0.4218c0.031 0.0625 0.18 0.2109 0.445 0.4453 0.266 0.2344 0.743 0.4765 1.43 0.7265 0.688 0.25 1.625 0.4766 2.813 0.6797 1.187 0.2032 2.718 0.3047 4.593 0.3047h5.86c0.5-2.8125 1.008-4.914 1.523-6.3047 0.516-1.3906 0.867-2.2734 1.055-2.6484 0.25-0.5313 0.617-0.9844 1.101-1.3594 0.485-0.375 0.899-0.5625 1.243-0.5625 0.656 0 1.187 0.625 1.593 1.875 0.407 1.25 0.61 3.1875 0.61 5.8125 0 0.4688-0.016 0.961-0.047 1.4766s-0.047 1.039-0.047 1.5703c1.5-0.0313 2.93-0.0625 4.289-0.0938 1.359-0.0312 2.578-0.0625 3.656-0.0937 1.078-0.0313 1.985-0.0625 2.719-0.0938 0.734-0.0312 1.211-0.0625 1.43-0.0937 0.156 0 0.422-0.0156 0.797-0.0469 0.375-0.0312 0.625-0.0469 0.75-0.0469 0.5 0 0.75 0.1563 0.75 0.4688 0 0.4375-0.133 0.8359-0.399 1.1953-0.265 0.3594-0.804 0.5703-1.617 0.6328-0.156 0.0313-0.617 0.0547-1.383 0.0703-0.765 0.0157-1.726 0.0391-2.883 0.0703-1.156 0.0313-2.453 0.0704-3.89 0.1172-1.438 0.0469-2.906 0.1016-4.406 0.1641-0.313 2.6562-0.875 5.5548-1.688 8.6958-0.812 3.14-1.953 6.507-3.422 10.101 0.125 2.063 0.305 3.781 0.539 5.156 0.235 1.375 0.555 2.477 0.961 3.305s0.914 1.414 1.524 1.758c0.609 0.344 1.336 0.515 2.179 0.515 0.907 0 1.75-0.171 2.532-0.515 0.781-0.344 1.492-0.774 2.132-1.289 0.641-0.516 1.203-1.078 1.688-1.688 0.484-0.609 0.89-1.179 1.219-1.711 0.328-0.531 0.578-0.968 0.75-1.312 0.171-0.344 0.273-0.531 0.304-0.563zm-10.829-22.641c-0.531 0-1.046 0.0156-1.546 0.0469-0.5 0.0312-1.016 0.0468-1.547 0.0468-0.094 1.7813-0.164 3.6091-0.211 5.4841-0.047 1.875-0.071 3.657-0.071 5.344v5.297c0.907-2.844 1.649-5.609 2.227-8.297 0.578-2.687 0.961-5.3281 1.148-7.9218zm-2.906-2.1094c0.5 0 1.008-0.0234 1.524-0.0703 0.515-0.0469 1.039-0.0703 1.57-0.0703v-1.5938c0-1.5625-0.047-2.8125-0.141-3.75-0.093-0.9375-0.195-1.664-0.304-2.1796-0.11-0.5157-0.235-0.8594-0.375-1.0313-0.141-0.1719-0.258-0.2578-0.352-0.2578-0.25 0-0.469 0.2344-0.656 0.7031-0.188 0.4688-0.36 1.1016-0.516 1.8985-0.156 0.7968-0.297 1.7421-0.422 2.8359-0.125 1.0937-0.234 2.2656-0.328 3.5156zm-13.828 69.656c-0.844 0-1.602-0.195-2.273-0.586-0.672-0.39-1.235-1.086-1.688-2.086s-0.797-2.344-1.031-4.031c-0.235-1.688-0.352-3.828-0.352-6.422v-14.648c0-4.141 8e-3 -7.727 0.024-10.758 0.015-3.031 0.023-5.61 0.023-7.735s8e-3 -4.007 0.024-5.648c0.015-1.641 0.023-3.141 0.023-4.5v-4.242c0-2.375 0.094-4.8439 0.281-7.4064 0.188-2.5625 0.477-5.0782 0.867-7.5469 0.391-2.4688 0.899-4.8125 1.524-7.0313 0.625-2.2187 1.375-4.1718 2.25-5.8593s1.891-3.0235 3.047-4.0078c1.156-0.9844 2.469-1.4766 3.937-1.4766 0.563 0 1.125 0.1797 1.688 0.5391 0.562 0.3593 1.07 0.9062 1.523 1.6406s0.813 1.6484 1.078 2.7422c0.266 1.0937 0.399 2.375 0.399 3.8437 0 2.5625-0.274 5.1719-0.821 7.8281-0.546 2.6563-1.257 5.2657-2.132 7.8282s-1.844 5.0156-2.907 7.3594c-1.062 2.344-2.093 4.484-3.093 6.422-1 1.937-1.922 3.609-2.766 5.015-0.844 1.407-1.484 2.438-1.922 3.094 0 0.094-8e-3 0.211-0.023 0.352-0.016 0.14-0.024 0.359-0.024 0.656v1.219c0 0.515 0.016 1.211 0.047 2.086 0.094 0.906 0.305 1.711 0.633 2.414s0.734 1.297 1.219 1.781c0.484 0.484 1.015 0.852 1.593 1.102 0.579 0.25 1.165 0.375 1.758 0.375 1.25 0 2.352-0.258 3.305-0.774 0.953-0.515 1.805-1.172 2.555-1.969 0.75-0.796 1.406-1.687 1.968-2.671 0.563-0.985 1.079-1.946 1.547-2.883l0.328 0.187c-0.281 0.719-0.679 1.656-1.195 2.813-0.516 1.156-1.172 2.281-1.969 3.375-0.797 1.093-1.757 2.039-2.882 2.836s-2.438 1.195-3.938 1.195c-0.437 0-0.914-0.039-1.43-0.117-0.515-0.078-1.039-0.274-1.57-0.586 0.781 1.969 1.5 3.898 2.156 5.789 0.657 1.891 1.227 3.836 1.711 5.836 0.485 2 0.86 4.101 1.125 6.305 0.266 2.203 0.399 4.617 0.399 7.242 0 1.656-0.133 3.164-0.399 4.523-0.265 1.36-0.617 2.531-1.054 3.516-0.438 0.984-0.969 1.742-1.594 2.273s-1.281 0.797-1.969 0.797zm-2.109-60.937c0 0.906-8e-3 1.875-0.024 2.906-0.015 1.031-0.039 2.039-0.07 3.023-0.031 0.985-0.055 1.93-0.07 2.836-0.016 0.906-0.024 1.688-0.024 2.344 0.531-1 1.18-2.234 1.945-3.703 0.766-1.469 1.563-3.086 2.391-4.852 0.828-1.765 1.641-3.664 2.438-5.695 0.796-2.0313 1.515-4.1094 2.156-6.2344 0.64-2.125 1.156-4.2813 1.547-6.4688 0.39-2.1875 0.586-4.3281 0.586-6.4219 0-1.125-0.055-2.1953-0.164-3.2109-0.11-1.0156-0.313-1.8984-0.61-2.6484s-0.703-1.3516-1.219-1.8047c-0.515-0.4531-1.195-0.6797-2.039-0.6797-0.875 0-1.656 0.3984-2.343 1.1953-0.688 0.7969-1.282 1.9063-1.782 3.3281-0.5 1.4219-0.921 3.1016-1.265 5.0391s-0.625 4.0391-0.844 6.3047-0.375 4.6562-0.469 7.1719c-0.093 2.5156-0.14 5.0387-0.14 7.5707zm5.203 48.187c0-2.469-0.156-4.828-0.469-7.078-0.312-2.25-0.719-4.414-1.219-6.492s-1.078-4.094-1.734-6.047-1.313-3.867-1.969-5.742v7.968c0 2.25-8e-3 4.508-0.023 6.774-0.016 2.266-8e-3 4.445 0.023 6.539s0.086 4.047 0.164 5.859c0.078 1.813 0.196 3.391 0.352 4.735 0.156 1.343 0.383 2.398 0.679 3.164 0.297 0.765 0.665 1.148 1.102 1.148 0.469 0 0.898-0.179 1.289-0.539 0.391-0.359 0.719-0.953 0.984-1.781 0.266-0.828 0.469-1.938 0.61-3.328 0.14-1.391 0.211-3.117 0.211-5.18zm-16.313-38.203c-0.281 0-0.539-0.164-0.773-0.492-0.235-0.328-0.539-0.68-0.914-1.055s-0.852-0.726-1.43-1.055c-0.578-0.328-1.336-0.492-2.273-0.492-1.313 0-2.532 0.336-3.657 1.008s-2.093 1.516-2.906 2.531c-0.812 1.016-1.445 2.125-1.898 3.328-0.453 1.204-0.68 2.336-0.68 3.399 0 1.656 0.422 3.015 1.266 4.078 0.843 1.062 1.968 1.594 3.375 1.594 1.093 0 2.054-0.211 2.882-0.633 0.829-0.422 1.524-0.977 2.086-1.664-0.187-0.844-0.281-1.891-0.281-3.141 0-1.344 0.102-2.437 0.305-3.281s0.453-1.5 0.75-1.969 0.601-0.789 0.914-0.961c0.312-0.172 0.578-0.258 0.797-0.258 0.25 0 0.539 0.172 0.867 0.516s0.492 0.953 0.492 1.828c0 1.094-0.195 2.242-0.586 3.446-0.39 1.203-0.929 2.351-1.617 3.445 0.375 0.969 0.953 1.672 1.734 2.109 0.782 0.438 1.672 0.656 2.672 0.656 0.875 0 1.696-0.195 2.461-0.585 0.766-0.391 1.485-0.915 2.156-1.571 0.672-0.656 1.305-1.414 1.899-2.273 0.594-0.86 1.141-1.742 1.641-2.649l0.281 0.188c-0.375 1.187-0.875 2.344-1.5 3.469s-1.344 2.125-2.156 3c-0.813 0.875-1.696 1.57-2.649 2.086-0.953 0.515-1.945 0.773-2.976 0.773-0.782 0-1.633-0.258-2.555-0.773-0.922-0.516-1.68-1.446-2.274-2.79-0.968 1.157-2.078 2.118-3.328 2.883-1.25 0.766-2.593 1.149-4.031 1.149-0.812 0-1.547-0.188-2.203-0.563s-1.211-0.875-1.664-1.5-0.805-1.359-1.055-2.203-0.375-1.734-0.375-2.672c0-1.594 0.352-3.187 1.055-4.781s1.64-3.031 2.812-4.313c1.172-1.281 2.516-2.32 4.032-3.117 1.515-0.797 3.101-1.195 4.757-1.195 1.219 0 2.243 0.133 3.071 0.398 0.828 0.266 1.492 0.579 1.992 0.938s0.859 0.726 1.078 1.101 0.328 0.672 0.328 0.891c0 0.438-0.226 0.742-0.68 0.914-0.453 0.172-0.867 0.258-1.242 0.258zm-3.937 6.234c0 1.032 0.094 1.922 0.281 2.672 0.469-0.875 0.813-1.773 1.031-2.695 0.219-0.922 0.328-1.711 0.328-2.367 0-0.782-0.14-1.172-0.421-1.172-0.282 0-0.555 0.344-0.821 1.031-0.265 0.688-0.398 1.531-0.398 2.531zm-25.078-9.797c0.781 0 1.406 0.165 1.875 0.493 0.468 0.328 0.82 0.718 1.054 1.172 0.235 0.453 0.383 0.914 0.446 1.382 0.062 0.469 0.093 0.86 0.093 1.172 0 0.375-0.046 0.969-0.14 1.781-0.094 0.813-0.188 1.657-0.281 2.532-0.094 0.875-0.188 1.687-0.282 2.437-0.093 0.75-0.14 1.25-0.14 1.5 0 0.625 0.047 1.196 0.14 1.711 0.094 0.516 0.266 0.977 0.516 1.383s0.594 0.719 1.031 0.937c0.438 0.219 1.016 0.329 1.735 0.329 1.312 0 2.687-0.657 4.125-1.969 1.437-1.313 2.781-3.125 4.031-5.438l0.281 0.188c-0.344 1.156-0.875 2.336-1.594 3.539-0.718 1.203-1.547 2.305-2.484 3.305-0.938 1-1.938 1.82-3 2.461-1.063 0.64-2.094 0.96-3.094 0.96-0.844 0-1.523-0.179-2.039-0.539-0.516-0.359-0.914-0.812-1.195-1.359s-0.469-1.141-0.563-1.781c-0.093-0.641-0.14-1.242-0.14-1.805 0-0.687 0.062-1.492 0.187-2.414s0.258-1.844 0.399-2.766c0.14-0.921 0.273-1.789 0.398-2.601 0.125-0.813 0.188-1.453 0.188-1.922 0-0.406-0.071-0.734-0.211-0.984-0.141-0.25-0.321-0.446-0.539-0.586-0.219-0.141-0.438-0.227-0.657-0.258-0.218-0.031-0.39-0.047-0.515-0.047-0.344 0-0.789 0.047-1.336 0.141-0.547 0.093-1.321 0.14-2.321 0.14-0.281 0-0.562-0.015-0.843-0.047-0.282-0.031-0.578-0.078-0.891-0.14-0.094 1.218-0.289 2.406-0.586 3.562s-0.625 2.219-0.984 3.188c-0.36 0.968-0.727 1.804-1.102 2.508-0.375 0.703-0.687 1.195-0.937 1.476-0.407 0-0.61-0.187-0.61-0.562 0.032-0.188 0.196-0.571 0.492-1.149 0.297-0.578 0.625-1.32 0.985-2.226 0.359-0.907 0.703-1.985 1.031-3.235s0.524-2.64 0.586-4.172c-1.469-0.843-2.203-2.343-2.203-4.5 0-0.593 0.117-1.093 0.351-1.5 0.235-0.406 0.586-0.609 1.055-0.609 0.688 0 1.18 0.398 1.477 1.195s0.476 1.867 0.539 3.211c0.219 0.063 0.429 0.11 0.633 0.141 0.203 0.031 0.445 0.047 0.726 0.047 0.813 0 1.57-0.047 2.274-0.141 0.703-0.094 1.382-0.141 2.039-0.141zm-6.851-1.125c0 0.125 0.141 0.25 0.424 0.375-0.071-0.156-0.124-0.312-0.159-0.468-0.036-0.157-0.089-0.282-0.159-0.375-0.071-0.125-0.106-0.235-0.106-0.328-0.212 0-0.388 0.046-0.529 0.14-0.142 0.094 0.035 0.313 0.529 0.656zm-41.899 4.5v-2.601c0-0.922 0.031-1.883 0.093-2.883-1.062 0.344-2.211 0.609-3.445 0.797-1.234 0.187-2.523 0.281-3.867 0.281-3.719 0-6.961-0.609-9.727-1.828-2.765-1.219-5.07-2.851-6.914-4.898-1.843-2.047-3.226-4.4144-4.148-7.1019s-1.383-5.5157-1.383-8.4844c0-3.0625 0.453-5.9141 1.359-8.5547 0.907-2.6406 2.149-5.0547 3.727-7.2422s3.453-4.1328 5.625-5.8359 4.508-3.1406 7.008-4.3125 5.117-2.0625 7.851-2.6719c2.735-0.6094 5.477-0.9141 8.227-0.9141 4.875 0 9.297 0.75 13.266 2.25 3.968 1.5 7.359 3.6954 10.171 6.586 2.813 2.8906 4.985 6.4531 6.516 10.688s2.297 9.0859 2.297 14.555c0 2.4375-0.18 5.1406-0.539 8.1093-0.36 2.9691-0.93 5.9691-1.711 9.0001s-1.797 5.977-3.047 8.836-2.773 5.406-4.57 7.641c-1.797 2.234-3.867 4.023-6.211 5.367-2.344 1.343-5.016 2.015-8.016 2.015-1.969 0-3.781-0.328-5.437-0.984-1.657-0.656-3.203-1.313-4.641-1.969-0.625 1.344-1.516 2.399-2.672 3.164-1.156 0.766-2.5 1.149-4.031 1.149-0.469 0-0.992-0.078-1.57-0.235-0.579-0.156-1.118-0.39-1.618-0.703-0.5-0.312-0.914-0.711-1.242-1.195s-0.492-1.055-0.492-1.711 0.156-1.227 0.469-1.711c0.312-0.484 0.726-0.891 1.242-1.219s1.109-0.578 1.781-0.75 1.367-0.258 2.086-0.258c0.688 0 1.36 0.055 2.016 0.165 0.656 0.109 1.328 0.242 2.015 0.398v-0.844c0-1.562-0.078-3.336-0.234-5.32s-0.234-4.242-0.234-6.774zm4.781-23.531c-0.531 2.25-0.93 4.7266-1.195 7.4297-0.266 2.7031-0.477 5.3831-0.633 8.0391 1.312-0.406 2.406-0.836 3.281-1.289s1.672-0.93 2.391-1.43l0.281 0.516c-0.563 0.531-1.344 1.133-2.344 1.805-1 0.671-2.203 1.32-3.609 1.945-0.063 1.156-0.094 2.258-0.094 3.305v3.023c0 1.344 0.023 2.531 0.07 3.562 0.047 1.032 0.102 1.985 0.164 2.86 0.063 0.875 0.118 1.719 0.164 2.531 0.047 0.813 0.071 1.656 0.071 2.531 0 0.438-0.016 0.852-0.047 1.243-0.031 0.39-0.078 0.757-0.141 1.101 1.563 0.531 3.102 1.047 4.617 1.547 1.516 0.5 3.118 0.75 4.805 0.75 2.781 0 5.235-0.508 7.36-1.523 2.125-1.016 3.968-2.391 5.531-4.125 1.562-1.735 2.859-3.75 3.89-6.047 1.032-2.297 1.86-4.719 2.485-7.266s1.07-5.148 1.336-7.805c0.265-2.6559 0.398-5.2184 0.398-7.6872 0-5-0.656-9.6484-1.969-13.945-1.312-4.2969-3.25-8.0234-5.812-11.18-2.563-3.1562-5.719-5.6328-9.469-7.4297-3.75-1.7968-8.078-2.6953-12.984-2.6953-4.625 0-8.805 0.6094-12.539 1.8281-3.735 1.2188-6.922 2.9922-9.563 5.3204-2.64 2.3281-4.672 5.1953-6.094 8.6015-1.421 3.4063-2.132 7.3125-2.132 11.719 0 2.7187 0.554 5.2656 1.664 7.6406 1.109 2.375 2.586 4.4375 4.429 6.1878 1.844 1.75 3.954 3.125 6.329 4.125s4.828 1.5 7.359 1.5c2.937 0 5.375-0.188 7.312-0.563 0.157-2.219 0.368-4.586 0.633-7.1014 0.266-2.5156 0.696-5.1953 1.289-8.039 0.063-0.4063 0.125-0.8282 0.188-1.2657 0.062-0.4375 0.094-0.6875 0.094-0.75 0-0.3125-8e-3 -0.6328-0.024-0.9609s0.117-0.4922 0.399-0.4922c0.156 0 0.359 0.0938 0.609 0.2813s0.484 0.414 0.703 0.6797c0.219 0.2656 0.406 0.539 0.563 0.8203 0.156 0.2812 0.234 0.5156 0.234 0.7031zm-8.438 41.485c1.282 0 2.211-0.313 2.789-0.938 0.579-0.625 0.961-1.375 1.149-2.25-0.688-0.25-1.336-0.453-1.945-0.609-0.61-0.157-1.211-0.235-1.805-0.235-0.906 0-1.727 0.157-2.461 0.469-0.734 0.313-1.102 0.828-1.102 1.547 0 0.625 0.336 1.117 1.008 1.477 0.672 0.359 1.461 0.539 2.367 0.539zm-22.968-11.719c-0.219 0.625-0.563 1.469-1.032 2.531-0.468 1.063-1.101 2.102-1.898 3.117-0.797 1.016-1.766 1.883-2.906 2.602-1.141 0.719-2.461 1.047-3.961 0.984-1.344-0.094-2.469-0.484-3.375-1.172-0.906-0.687-1.641-1.742-2.203-3.164-0.563-1.422-0.969-3.218-1.219-5.39s-0.375-4.789-0.375-7.852c0-2.937 0.078-5.586 0.234-7.945 0.157-2.36 0.36-4.4456 0.61-6.2581-1.438 0.0625-2.696 0.0938-3.774 0.0938h-2.273c-0.906 0-1.805-0.0625-2.696-0.1875-0.89-0.125-1.726-0.3438-2.507-0.6563-0.782-0.3125-1.5-0.7265-2.157-1.2421-0.656-0.5157-1.203-1.1641-1.64-1.9454l0.187-0.4218c0.032 0.0625 0.18 0.2109 0.446 0.4453 0.265 0.2344 0.742 0.4765 1.429 0.7265 0.688 0.25 1.625 0.4766 2.813 0.6797 1.187 0.2032 2.719 0.3047 4.594 0.3047h5.859c0.5-2.8125 1.008-4.914 1.523-6.3047 0.516-1.3906 0.868-2.2734 1.055-2.6484 0.25-0.5313 0.617-0.9844 1.102-1.3594 0.484-0.375 0.898-0.5625 1.242-0.5625 0.656 0 1.187 0.625 1.594 1.875 0.406 1.25 0.609 3.1875 0.609 5.8125 0 0.4688-0.016 0.961-0.047 1.4766s-0.047 1.039-0.047 1.5703c1.5-0.0313 2.93-0.0625 4.289-0.0938 1.36-0.0312 2.578-0.0625 3.656-0.0937 1.079-0.0313 1.985-0.0625 2.719-0.0938 0.735-0.0312 1.211-0.0625 1.43-0.0937 0.156 0 0.422-0.0156 0.797-0.0469 0.375-0.0312 0.625-0.0469 0.75-0.0469 0.5 0 0.75 0.1563 0.75 0.4688 0 0.4375-0.133 0.8359-0.399 1.1953-0.265 0.3594-0.804 0.5703-1.617 0.6328-0.156 0.0313-0.617 0.0547-1.383 0.0703-0.765 0.0157-1.726 0.0391-2.882 0.0703-1.157 0.0313-2.454 0.0704-3.891 0.1172-1.438 0.0469-2.906 0.1016-4.406 0.1641-0.313 2.6562-0.875 5.5548-1.688 8.6958-0.812 3.14-1.953 6.507-3.422 10.101 0.125 2.063 0.305 3.781 0.539 5.156 0.235 1.375 0.555 2.477 0.961 3.305 0.407 0.828 0.914 1.414 1.524 1.758 0.609 0.344 1.336 0.515 2.179 0.515 0.907 0 1.75-0.171 2.532-0.515 0.781-0.344 1.492-0.774 2.132-1.289 0.641-0.516 1.204-1.078 1.688-1.688 0.484-0.609 0.891-1.179 1.219-1.711 0.328-0.531 0.578-0.968 0.75-1.312s0.273-0.531 0.304-0.563zm-10.828-22.641c-0.532 0-1.047 0.0156-1.547 0.0469-0.5 0.0312-1.016 0.0468-1.547 0.0468-0.094 1.7813-0.164 3.6091-0.211 5.4841-0.047 1.875-0.07 3.657-0.07 5.344v5.297c0.906-2.844 1.648-5.609 2.226-8.297 0.578-2.687 0.961-5.3281 1.149-7.9218zm-2.907-2.1094c0.5 0 1.008-0.0234 1.524-0.0703 0.515-0.0469 1.039-0.0703 1.57-0.0703v-1.5938c0-1.5625-0.047-2.8125-0.141-3.75-0.093-0.9375-0.195-1.664-0.304-2.1796-0.11-0.5157-0.235-0.8594-0.375-1.0313-0.141-0.1719-0.258-0.2578-0.352-0.2578-0.25 0-0.469 0.2344-0.656 0.7031-0.188 0.4688-0.359 1.1016-0.516 1.8985-0.156 0.7968-0.297 1.7421-0.422 2.8359-0.125 1.0937-0.234 2.2656-0.328 3.5156zm-10.547 11.765c0.407 0.094 0.61 0.36 0.61 0.797 0 0.125-0.039 0.289-0.117 0.493-0.079 0.203-0.172 0.406-0.282 0.609-0.109 0.203-0.226 0.375-0.351 0.516-0.125 0.14-0.235 0.21-0.328 0.21-0.157 0-0.344-0.054-0.563-0.164-0.219-0.109-0.531-0.234-0.937-0.375-0.407-0.14-0.938-0.265-1.594-0.375-0.656-0.109-1.516-0.164-2.578-0.164-1.5 0-2.75 0.282-3.75 0.844-1 0.563-1.5 1.344-1.5 2.344 0 0.719 0.304 1.32 0.914 1.805 0.609 0.484 1.328 0.867 2.156 1.148s1.672 0.484 2.531 0.609c0.86 0.125 1.524 0.188 1.993 0.188 0.343 0 0.57 0.055 0.679 0.164 0.11 0.109 0.164 0.211 0.164 0.305 0 0.25-0.101 0.398-0.304 0.445-0.204 0.047-0.461 0.117-0.774 0.211-0.812 0.281-1.64 0.633-2.484 1.055-0.844 0.421-1.617 0.921-2.321 1.5-0.703 0.578-1.273 1.226-1.71 1.945-0.438 0.719-0.657 1.5-0.657 2.344 0 1.406 0.571 2.57 1.711 3.492 1.141 0.922 2.742 1.383 4.805 1.383 2.344 0 4.297-0.352 5.859-1.055 1.563-0.703 2.852-1.524 3.867-2.461 1.016-0.938 1.805-1.883 2.368-2.836 0.562-0.953 0.984-1.68 1.265-2.18l0.282 0.188c-0.532 1.531-1.211 2.953-2.04 4.265-0.828 1.313-1.828 2.446-3 3.399-1.171 0.953-2.539 1.703-4.101 2.25-1.563 0.547-3.344 0.82-5.344 0.82-1.219 0-2.344-0.148-3.375-0.445s-1.922-0.711-2.672-1.242c-0.75-0.532-1.328-1.188-1.734-1.969s-0.609-1.672-0.609-2.672c0-1.156 0.265-2.156 0.796-3 0.532-0.844 1.141-1.539 1.829-2.086 0.687-0.547 1.367-0.969 2.039-1.265 0.671-0.297 1.148-0.508 1.429-0.633-0.968-0.157-1.828-0.422-2.578-0.797-0.625-0.344-1.203-0.82-1.734-1.43-0.531-0.609-0.797-1.445-0.797-2.508 0-0.968 0.234-1.851 0.703-2.648s1.102-1.461 1.898-1.992c0.797-0.532 1.719-0.946 2.766-1.242 1.047-0.297 2.164-0.446 3.352-0.446 0.687 0 1.382 0.047 2.086 0.141 0.703 0.094 1.414 0.265 2.132 0.515zm-23.859 3.657c0.25 0 0.492 0.07 0.727 0.211 0.234 0.14 0.437 0.289 0.609 0.445s0.312 0.32 0.422 0.492c0.109 0.172 0.164 0.274 0.164 0.305s-0.039 0.195-0.117 0.492-0.172 0.789-0.282 1.477c-0.109 0.687-0.203 1.586-0.281 2.695s-0.117 2.492-0.117 4.148c0 2.219 0.273 3.766 0.82 4.641s1.211 1.312 1.993 1.312c0.781 0 1.554-0.234 2.32-0.703 0.765-0.468 1.492-1.078 2.18-1.828 0.687-0.75 1.335-1.601 1.945-2.554 0.609-0.954 1.148-1.915 1.617-2.883l0.281 0.187c-0.125 0.313-0.312 0.789-0.562 1.43s-0.563 1.336-0.938 2.086-0.82 1.523-1.336 2.32c-0.515 0.797-1.109 1.516-1.781 2.156-0.672 0.641-1.406 1.172-2.203 1.594s-1.664 0.633-2.602 0.633c-0.656 0-1.257-0.125-1.804-0.375s-1.032-0.711-1.453-1.383c-0.422-0.672-0.75-1.601-0.985-2.789-0.234-1.187-0.351-2.719-0.351-4.594 0-0.968 0.039-2.007 0.117-3.117 0.078-1.109 0.187-2.14 0.328-3.094 0.141-0.953 0.32-1.742 0.539-2.367s0.469-0.937 0.75-0.937zm1.125-11.625c0.781 0 1.344 0.2734 1.688 0.8203 0.343 0.5469 0.515 1.211 0.515 1.992 0 0.906-0.25 1.61-0.75 2.11s-1.109 0.75-1.828 0.75c-0.531 0-1.047-0.204-1.547-0.61-0.5-0.406-0.75-1.062-0.75-1.969 0-1 0.25-1.7652 0.75-2.2964 0.5-0.5313 1.141-0.7969 1.922-0.7969zm-42.609 14.718v-2.601c0-0.922 0.0313-1.883 0.0938-2.883-1.0625 0.344-2.211 0.609-3.4453 0.797-1.2344 0.187-2.5235 0.281-3.8672 0.281-3.7188 0-6.961-0.609-9.7266-1.828s-5.0703-2.851-6.914-4.898c-1.8438-2.047-3.2266-4.4144-4.1485-7.1019s-1.3828-5.5157-1.3828-8.4844c0-3.0625 0.4531-5.9141 1.3594-8.5547 0.9062-2.6406 2.1484-5.0547 3.7265-7.2422 1.5782-2.1875 3.4532-4.1328 5.625-5.8359 2.1719-1.7031 4.5079-3.1406 7.0079-4.3125s5.1171-2.0625 7.8515-2.6719 5.4766-0.9141 8.2266-0.9141c4.875 0 9.2969 0.75 13.266 2.25 3.9688 1.5 7.3594 3.6954 10.172 6.586s4.9844 6.4531 6.5156 10.688c1.5313 4.2344 2.297 9.0859 2.297 14.555 0 2.4375-0.1798 5.1406-0.5392 8.1093-0.3594 2.9691-0.9297 5.9691-1.7109 9.0001-0.7813 3.031-1.7969 5.977-3.0469 8.836s-2.7734 5.406-4.5703 7.641c-1.7969 2.234-3.8672 4.023-6.2109 5.367-2.3438 1.343-5.0157 2.015-8.0157 2.015-1.9687 0-3.7812-0.328-5.4375-0.984-1.6562-0.656-3.2031-1.313-4.6406-1.969-0.625 1.344-1.5156 2.399-2.6719 3.164-1.1562 0.766-2.5 1.149-4.0312 1.149-0.4688 0-0.9922-0.078-1.5703-0.235-0.5782-0.156-1.1172-0.39-1.6172-0.703-0.5-0.312-0.9141-0.711-1.2422-1.195s-0.4922-1.055-0.4922-1.711 0.1563-1.227 0.4688-1.711 0.7265-0.891 1.2421-1.219c0.5157-0.328 1.1094-0.578 1.7813-0.75s1.3672-0.258 2.0859-0.258c0.6875 0 1.3594 0.055 2.0157 0.165 0.6562 0.109 1.3281 0.242 2.0156 0.398v-0.844c0-1.562-0.0781-3.336-0.2344-5.32-0.1562-1.984-0.2344-4.242-0.2344-6.774zm4.7813-23.531c-0.5313 2.25-0.9297 4.7266-1.1953 7.4297-0.2657 2.7031-0.4766 5.3831-0.6328 8.0391 1.3125-0.406 2.4062-0.836 3.2812-1.289s1.6719-0.93 2.3906-1.43l0.2813 0.516c-0.5625 0.531-1.3438 1.133-2.3438 1.805-1 0.671-2.2031 1.32-3.6093 1.945-0.0625 1.156-0.0938 2.258-0.0938 3.305v3.023c0 1.344 0.0234 2.531 0.0703 3.562 0.0469 1.032 0.1016 1.985 0.1641 2.86s0.1172 1.719 0.164 2.531c0.0469 0.813 0.0704 1.656 0.0704 2.531 0 0.438-0.0157 0.852-0.0469 1.243-0.0313 0.39-0.0781 0.757-0.1406 1.101 1.5625 0.531 3.1015 1.047 4.6171 1.547 1.5157 0.5 3.1172 0.75 4.8047 0.75 2.7813 0 5.2344-0.508 7.3594-1.523 2.125-1.016 3.9688-2.391 5.5313-4.125 1.5625-1.735 2.8593-3.75 3.8906-6.047 1.0312-2.297 1.8594-4.719 2.4844-7.266s1.0703-5.148 1.3359-7.805c0.2656-2.6559 0.3984-5.2184 0.3984-7.6872 0-5-0.6562-9.6484-1.9687-13.945s-3.25-8.0234-5.8125-11.18c-2.5625-3.1562-5.7188-5.6328-9.4688-7.4297-3.75-1.7968-8.0781-2.6953-12.984-2.6953-4.625 0-8.8047 0.6094-12.539 1.8281-3.7344 1.2188-6.9219 2.9922-9.5625 5.3204-2.6406 2.3281-4.6719 5.1953-6.0938 8.6015-1.4218 3.4063-2.1328 7.3125-2.1328 11.719 0 2.7187 0.5547 5.2656 1.6641 7.6406s2.5859 4.4375 4.4297 6.1878c1.8437 1.75 3.9531 3.125 6.3281 4.125s4.8281 1.5 7.3594 1.5c2.9375 0 5.375-0.188 7.3125-0.563 0.1562-2.219 0.3672-4.586 0.6328-7.1014 0.2656-2.5156 0.6953-5.1953 1.2891-8.039 0.0625-0.4063 0.125-0.8282 0.1875-1.2657s0.0937-0.6875 0.0937-0.75c0-0.3125-0.0078-0.6328-0.0234-0.9609-0.0157-0.3281 0.1172-0.4922 0.3984-0.4922 0.1563 0 0.3594 0.0938 0.6094 0.2813s0.4844 0.414 0.7031 0.6797c0.2188 0.2656 0.4063 0.539 0.5625 0.8203 0.1563 0.2812 0.2344 0.5156 0.2344 0.7031zm-8.4375 41.485c1.2812 0 2.2109-0.313 2.789-0.938 0.5782-0.625 0.961-1.375 1.1485-2.25-0.6875-0.25-1.336-0.453-1.9453-0.609-0.6094-0.157-1.211-0.235-1.8047-0.235-0.9063 0-1.7266 0.157-2.461 0.469-0.7343 0.313-1.1015 0.828-1.1015 1.547 0 0.625 0.3359 1.117 1.0078 1.477 0.6719 0.359 1.4609 0.539 2.3672 0.539z" stroke="#000" stroke-width="1.5" artboard="dc40d63e-a4e2-429b-9245-33151438af68"/>
</g>
</svg>
