<?xml version="1.0" encoding="UTF-8" standalone="no"?>
<svg
   width="1em"
   height="1em"
   viewBox="0 0 36 36"
   version="1.1"
   id="svg18"
   sodipodi:docname="jar.svg"
   xml:space="preserve"
   inkscape:version="1.2.2 (732a01da63, 2022-12-09)"
   xmlns:inkscape="http://www.inkscape.org/namespaces/inkscape"
   xmlns:sodipodi="http://sodipodi.sourceforge.net/DTD/sodipodi-0.dtd"
   xmlns="http://www.w3.org/2000/svg"
   xmlns:svg="http://www.w3.org/2000/svg"><defs
     id="defs22" /><sodipodi:namedview
     id="namedview20"
     pagecolor="#ffffff"
     bordercolor="#000000"
     borderopacity="0.25"
     inkscape:showpageshadow="2"
     inkscape:pageopacity="0.0"
     inkscape:pagecheckerboard="0"
     inkscape:deskcolor="#d1d1d1"
     showgrid="false"
     inkscape:zoom="2.64674"
     inkscape:cx="31.359333"
     inkscape:cy="37.782329"
     inkscape:window-width="1366"
     inkscape:window-height="697"
     inkscape:window-x="-8"
     inkscape:window-y="-8"
     inkscape:window-maximized="1"
     inkscape:current-layer="svg18" /><path
     fill="#C4C9C8"
     d="M8 8c0 .64.254 1.254.707 1.707a.256.256 0 0 1-.1.424l-.556.185A3 3 0 0 0 6 13.162v18.451c0 .002.002.004.004.004c0 .007-.004.014-.004.021c0 1.796 5.373 3.252 12 3.252s12-1.456 12-3.252c0-.007-.004-.014-.004-.021a.004.004 0 0 0 .004-.004V13.162a3 3 0 0 0-2.051-2.846l-.795-.265a.1.1 0 0 1-.04-.165l.178-.178A2.415 2.415 0 0 0 28 8H8z"
     id="path2" /><path
     fill="#F19020"
     d="M29 6.8c0 1.657-4.925 3.2-11 3.2S7 8.457 7 6.8S11.925 4 18 4s11 1.143 11 2.8z"
     id="path4" /><path
     fill="#F19020"
     d="M7 4h22v2.8H7z"
     id="path6" /><ellipse
     cx="18"
     cy="4"
     fill="#F9CA55"
     rx="11"
     ry="3"
     id="ellipse8" /><ellipse
     cx="18"
     cy="30.5"
     fill="#AEB3B2"
     rx="11"
     ry="3"
     id="ellipse10"
     style="fill:#935212;fill-opacity:1" /><ellipse
     cx="18"
     cy="13.198391"
     fill="#aeb3b2"
     rx="11"
     ry="3"
     id="ellipse12055"
     style="fill:#935212;fill-opacity:1" /><rect
     style="fill:#935212;fill-opacity:1;stroke:none;stroke-width:0.9;stroke-linecap:round;stroke-linejoin:round;stroke-dasharray:none"
     id="rect12050"
     width="22"
     height="17.301609"
     x="7"
     y="13.198391" /><g
     id="rect6181"><path
       style="color:#000000;fill:#fff1ce;stroke-width:0.9;stroke-linecap:round;stroke-linejoin:round;-inkscape-stroke:none"
       d="m 8.7659747,15.866295 c 4.2711683,1.890486 13.1620843,2.238446 18.6180693,0.0638 l -0.06679,12.089053 c -4.22587,3.226749 -14.286014,3.000447 -18.5512793,0.114019 z"
       id="path12043" /><path
       style="color:#000000;fill:#f19020;stroke-linecap:round;stroke-linejoin:round;-inkscape-stroke:none;fill-opacity:1"
       d="m 8.9472656,15.455078 a 0.45004499,0.45004499 0 0 0 -0.6308593,0.41211 v 12.265624 a 0.45004499,0.45004499 0 0 0 0.1972656,0.373047 c 2.2641111,1.53219 5.9004961,2.298213 9.5410151,2.3125 3.64052,0.01429 7.281295,-0.720424 9.535157,-2.441406 a 0.45004499,0.45004499 0 0 0 0.177734,-0.355469 l 0.06641,-12.089843 a 0.45004499,0.45004499 0 0 0 -0.617187,-0.419922 c -2.642225,1.053138 -6.185969,1.511741 -9.580078,1.460937 -3.394109,-0.0508 -6.650202,-0.614973 -8.6894534,-1.517578 z m 0.2695313,1.001953 c 2.2097481,0.847934 5.1952181,1.367953 8.4062501,1.416016 3.253647,0.0487 6.581728,-0.400953 9.30664,-1.367188 l -0.06055,11.232422 c -1.994118,1.439453 -5.377046,2.193162 -8.810547,2.179688 -3.423773,-0.01344 -6.817079,-0.785895 -8.8417971,-2.078125 z"
       id="path12045" /></g><path
     fill="#F19020"
     d="M10.465 4c1.099-.582 4.053-1 7.535-1s6.436.418 7.535 1c.296-.157.465-.324.465-.5c0-.828-3.582-1.5-8-1.5s-8 .672-8 1.5c0 .176.169.343.465.5z"
     id="path12" /><path
     fill="#AEB3B2"
     d="M18 12c-1.145 0-5.129-.07-8.335-.974a.5.5 0 1 1 .271-.963c3.083.87 6.952.937 8.064.937s4.981-.067 8.063-.937a.501.501 0 0 1 .271.963C23.129 11.93 19.145 12 18 12z"
     id="path14" /><g
     id="g5401"
     transform="matrix(0.2373272,0,0,0.2373272,7.2499712,17.010087)"><path
       fill="#d99e82"
       d="m 44.751937,40.55969 c -4.754,4.754 -11.207,5.573 -14.683,2.097 -3.475,-3.475 -2.517,-10.066 2.099,-14.682 3.355,-3.356 6.711,-3.356 9.228,-5.873 2.517,-2.516 1.678,-5.033 5.454,-8.809 4.614,-4.6129998 10.486,-5.4529998 14.262,-1.678 3.774,3.776 2.832,9.754 -1.678,14.263 -3.775,3.775 -6.292,2.936 -8.809,5.452 -2.518,2.518 -2.518,5.873 -5.873,9.23 z"
       id="path1168" /><path
       fill="#c1694f"
       d="m 35.706937,30.43769 a 1,1 0 0 1 -0.553,-1.834 13.776,13.776 0 0 1 2.245,-1.193 c 3.938,-1.516 6.902,-4.208 7.765,-7.037 a 1.0004105,1.0004105 0 0 1 1.914,0.583 c -1.039,3.406 -4.46,6.589 -8.931,8.309 -0.665,0.28 -1.31,0.623 -1.889,1.006 a 0.99,0.99 0 0 1 -0.551,0.166 z m -5.044,8.937 h -0.022 a 1.002,1.002 0 0 1 -0.979,-1.021 c 0.047,-2.164 0.385,-4.916 2.601,-7.002 a 1.001,1.001 0 0 1 1.372,1.457 c -1.666,1.567 -1.932,3.704 -1.972,5.588 a 1.001,1.001 0 0 1 -1,0.978 z m 4.125,-0.709 a 1,1 0 0 1 -0.97,-1.248 c 0.562,-2.191 1.782,-5.277 5.875,-6.774 a 1.001,1.001 0 0 1 0.686,1.879 c -3.171,1.159 -4.137,3.49 -4.625,5.392 a 0.995,0.995 0 0 1 -0.966,0.751 z m 17.667,-11.041 a 1.001,1.001 0 0 1 -0.333,-1.943 c 4.279,-1.51 6.849,-4.449 7.856,-8.982 0.12,-0.54 0.657,-0.874 1.193,-0.759 0.539,0.12 0.879,0.654 0.76,1.193 -1.154,5.19 -4.23,8.701 -9.144,10.435 a 1.038,1.038 0 0 1 -0.332,0.056 z"
       id="path1170" /><path
       fill="#c1694f"
       d="m 51.954937,23.91569 a 1,1 0 0 1 -0.368,-1.93 c 1.722,-0.682 3.378,-2.263 4.12,-3.935 a 1.001,1.001 0 0 1 1.828,0.812 c -0.956,2.151 -3.002,4.107 -5.212,4.982 a 0.974,0.974 0 0 1 -0.368,0.071 z m -8.709,7.209 a 1,1 0 0 1 -0.378,-1.926 c 0.955,-0.39 1.979,-1.345 2.266,-1.832 a 1,1 0 1 1 1.723,1.015 c -0.513,0.873 -1.864,2.11 -3.233,2.669 a 0.99,0.99 0 0 1 -0.378,0.074 z m 4,-12.667 a 1,1 0 0 1 -0.945,-1.328 c 0.4,-1.152 1.234,-2.255 2.124,-2.812 a 1.0002671,1.0002671 0 0 1 1.061,1.696 c -0.421,0.263 -1.017,0.973 -1.295,1.772 a 1.001,1.001 0 0 1 -0.945,0.672 z m -13.293,24.498 a 0.997,0.997 0 0 1 -0.988,-0.857 c -0.064,-0.451 0,-1.253 0.098,-1.691 a 1.01,1.01 0 0 1 1.193,-0.759 1,1 0 0 1 0.759,1.194 c -0.064,0.286 -0.09,0.824 -0.069,0.975 a 1,1 0 0 1 -0.993,1.138 z"
       id="path1172" /></g></svg>
